solid OBJECT
  facet normal -0 0 -1
    outer loop
      vertex 5.0959937363551013 0.67190311503601519 -0.58699999999999419
      vertex 5.0959937363551013 -0.67190311508248302 -0.58699999999999419
      vertex -1.2440062636448979 -0.67190311508248302 -0.58699999999999419
    endloop
  endfacet
  facet normal 0 -0 -1
    outer loop
      vertex 5.0959937363551013 0.67190311503601519 -0.58699999999999419
      vertex -1.2440062636448979 -0.67190311508248302 -0.58699999999999419
      vertex -1.2440062636448979 0.67190311503601519 -0.58699999999999419
    endloop
  endfacet
  facet normal 0 0 1
    outer loop
      vertex 5.0959937363551013 -0.67190311508248302 -1.9326762412674726e-15
      vertex 5.0959937363551013 0.67190311503601519 -1.9326762412674726e-15
      vertex -1.2440062636448979 0.67190311503601519 -1.9326762412674726e-15
    endloop
  endfacet
  facet normal 0 -0 1
    outer loop
      vertex 5.0959937363551013 -0.67190311508248302 -1.9326762412674726e-15
      vertex -1.2440062636448979 0.67190311503601519 -1.9326762412674726e-15
      vertex -1.2440062636448979 -0.67190311508248302 -1.9326762412674726e-15
    endloop
  endfacet
  facet normal -0 -1 -0
    outer loop
      vertex 5.0959937363551013 -0.67190311508248302 -0.58699999999999419
      vertex 5.0959937363551013 -0.67190311508248302 -1.9326762412674726e-15
      vertex -1.2440062636448979 -0.67190311508248302 -1.9326762412674726e-15
    endloop
  endfacet
  facet normal 0 -1 0
    outer loop
      vertex 5.0959937363551013 -0.67190311508248302 -0.58699999999999419
      vertex -1.2440062636448979 -0.67190311508248302 -1.9326762412674726e-15
      vertex -1.2440062636448979 -0.67190311508248302 -0.58699999999999419
    endloop
  endfacet
  facet normal -1 0 -0
    outer loop
      vertex -1.2440062636448979 -0.67190311508248302 -0.58699999999999419
      vertex -1.2440062636448979 -0.67190311508248302 -1.9326762412674726e-15
      vertex -1.2440062636448979 0.67190311503601519 -1.9326762412674726e-15
    endloop
  endfacet
  facet normal -1 0 0
    outer loop
      vertex -1.2440062636448979 -0.67190311508248302 -0.58699999999999419
      vertex -1.2440062636448979 0.67190311503601519 -1.9326762412674726e-15
      vertex -1.2440062636448979 0.67190311503601519 -0.58699999999999419
    endloop
  endfacet
  facet normal -0 1 0
    outer loop
      vertex -1.2440062636448979 0.67190311503601519 -0.58699999999999419
      vertex -1.2440062636448979 0.67190311503601519 -1.9326762412674726e-15
      vertex 5.0959937363551013 0.67190311503601519 -1.9326762412674726e-15
    endloop
  endfacet
  facet normal 0 1 -0
    outer loop
      vertex -1.2440062636448979 0.67190311503601519 -0.58699999999999419
      vertex 5.0959937363551013 0.67190311503601519 -1.9326762412674726e-15
      vertex 5.0959937363551013 0.67190311503601519 -0.58699999999999419
    endloop
  endfacet
  facet normal 1 0 0
    outer loop
      vertex 5.0959937363551013 0.67190311503601519 -0.58699999999999419
      vertex 5.0959937363551013 0.67190311503601519 -1.9326762412674726e-15
      vertex 5.0959937363551013 -0.67190311508248302 -1.9326762412674726e-15
    endloop
  endfacet
  facet normal 1 0 -0
    outer loop
      vertex 5.0959937363551013 0.67190311503601519 -0.58699999999999419
      vertex 5.0959937363551013 -0.67190311508248302 -1.9326762412674726e-15
      vertex 5.0959937363551013 -0.67190311508248302 -0.58699999999999419
    endloop
  endfacet
endsolid OBJECT
