solid OBJECT
  facet normal 1 0 0
    outer loop
      vertex -0.60000002384185791 0.26499998569488525 0.52899998426437378
      vertex -0.60000002384185791 0.26499998569488525 5.7980286153822003e-15
      vertex -0.60000002384185791 0.48500001430511475 0.52899998426437378
    endloop
  endfacet
  facet normal 1 0 -0
    outer loop
      vertex -0.60000002384185791 0.26499998569488525 5.7980286153822003e-15
      vertex -0.60000002384185791 0.48500001430511475 5.7980286153822003e-15
      vertex -0.60000002384185791 0.48500001430511475 0.52899998426437378
    endloop
  endfacet
  facet normal -0 1 0
    outer loop
      vertex -0.60000002384185791 0.48500001430511475 5.7980286153822003e-15
      vertex -0.86000001430511475 0.48500001430511475 5.7980286153822003e-15
      vertex -0.60000002384185791 0.48500001430511475 0.52899998426437378
    endloop
  endfacet
  facet normal 0 1 -0
    outer loop
      vertex -0.86000001430511475 0.48500001430511475 5.7980286153822003e-15
      vertex -0.86000001430511475 0.48500001430511475 0.52899998426437378
      vertex -0.60000002384185791 0.48500001430511475 0.52899998426437378
    endloop
  endfacet
  facet normal -1 0 -0
    outer loop
      vertex -0.86000001430511475 0.48500001430511475 0.52899998426437378
      vertex -0.86000001430511475 0.48500001430511475 5.7980286153822003e-15
      vertex -0.86000001430511475 0.26499998569488525 0.52899998426437378
    endloop
  endfacet
  facet normal -1 0 0
    outer loop
      vertex -0.86000001430511475 0.48500001430511475 5.7980286153822003e-15
      vertex -0.86000001430511475 0.26499998569488525 5.7980286153822003e-15
      vertex -0.86000001430511475 0.26499998569488525 0.52899998426437378
    endloop
  endfacet
  facet normal -0 -1 0
    outer loop
      vertex -0.86000001430511475 0.26499998569488525 5.7980286153822003e-15
      vertex -0.60000002384185791 0.26499998569488525 5.7980286153822003e-15
      vertex -0.86000001430511475 0.26499998569488525 0.52899998426437378
    endloop
  endfacet
  facet normal 0 -1 0
    outer loop
      vertex -0.60000002384185791 0.26499998569488525 5.7980286153822003e-15
      vertex -0.60000002384185791 0.26499998569488525 0.52899998426437378
      vertex -0.86000001430511475 0.26499998569488525 0.52899998426437378
    endloop
  endfacet
  facet normal 0 -0 1
    outer loop
      vertex -0.60000002384185791 0.48500001430511475 0.52899998426437378
      vertex -0.86000001430511475 0.48500001430511475 0.52899998426437378
      vertex -0.86000001430511475 0.26499998569488525 0.52899998426437378
    endloop
  endfacet
  facet normal 0 -0 1
    outer loop
      vertex -0.60000002384185791 0.48500001430511475 0.52899998426437378
      vertex -0.86000001430511475 0.26499998569488525 0.52899998426437378
      vertex -0.60000002384185791 0.26499998569488525 0.52899998426437378
    endloop
  endfacet
  facet normal -0 0 1
    outer loop
      vertex -0.86000001430511475 0.26499998569488525 5.7980286153822003e-15
      vertex -0.88999998569488525 0.59500002861022949 5.7980286153822003e-15
      vertex -0.88999998569488525 -0.59500002861022949 5.7980286153822003e-15
    endloop
  endfacet
  facet normal 0 0 1
    outer loop
      vertex -0.88999998569488525 0.59500002861022949 5.7980286153822003e-15
      vertex -0.86000001430511475 0.26499998569488525 5.7980286153822003e-15
      vertex -0.86000001430511475 0.48500001430511475 5.7980286153822003e-15
    endloop
  endfacet
  facet normal 0 -0 1
    outer loop
      vertex 0.47999995946884155 0.59500002861022949 5.7980286153822003e-15
      vertex -0.88999998569488525 0.59500002861022949 5.7980286153822003e-15
      vertex -0.60000002384185791 0.48500001430511475 5.7980286153822003e-15
    endloop
  endfacet
  facet normal 0 0 1
    outer loop
      vertex -0.86000001430511475 0.48500001430511475 5.7980286153822003e-15
      vertex -0.60000002384185791 0.48500001430511475 5.7980286153822003e-15
      vertex -0.88999998569488525 0.59500002861022949 5.7980286153822003e-15
    endloop
  endfacet
  facet normal -0 0 1
    outer loop
      vertex -0.60000002384185791 0.26499998569488525 5.7980286153822003e-15
      vertex 0.47999995946884155 0.59500002861022949 5.7980286153822003e-15
      vertex -0.60000002384185791 0.48500001430511475 5.7980286153822003e-15
    endloop
  endfacet
  facet normal -0 -0 1
    outer loop
      vertex 0.47999995946884155 -0.59500002861022949 5.7980286153822003e-15
      vertex -0.60000002384185791 0.26499998569488525 5.7980286153822003e-15
      vertex -0.88999998569488525 -0.59500002861022949 5.7980286153822003e-15
    endloop
  endfacet
  facet normal 0 0 1
    outer loop
      vertex -0.86000001430511475 0.26499998569488525 5.7980286153822003e-15
      vertex -0.88999998569488525 -0.59500002861022949 5.7980286153822003e-15
      vertex -0.60000002384185791 0.26499998569488525 5.7980286153822003e-15
    endloop
  endfacet
  facet normal 0 -0 1
    outer loop
      vertex -0.60000002384185791 0.26499998569488525 5.7980286153822003e-15
      vertex 0.47999995946884155 -0.59500002861022949 5.7980286153822003e-15
      vertex 0.47999995946884155 0.59500002861022949 5.7980286153822003e-15
    endloop
  endfacet
  facet normal 1 0 0
    outer loop
      vertex 0.47999995946884155 0.59500002861022949 -0.029999999329447746
      vertex 0.47999995946884155 0.59500002861022949 5.7980286153822003e-15
      vertex 0.47999995946884155 -0.59500002861022949 5.7980286153822003e-15
    endloop
  endfacet
  facet normal 1 0 -0
    outer loop
      vertex 0.47999995946884155 0.59500002861022949 -0.029999999329447746
      vertex 0.47999995946884155 -0.59500002861022949 5.7980286153822003e-15
      vertex 0.47999995946884155 -0.59500002861022949 -0.029999999329447746
    endloop
  endfacet
  facet normal -0 1 0
    outer loop
      vertex -0.88999998569488525 0.59500002861022949 -0.029999999329447746
      vertex -0.88999998569488525 0.59500002861022949 5.7980286153822003e-15
      vertex 0.47999995946884155 0.59500002861022949 5.7980286153822003e-15
    endloop
  endfacet
  facet normal 0 1 -0
    outer loop
      vertex -0.88999998569488525 0.59500002861022949 -0.029999999329447746
      vertex 0.47999995946884155 0.59500002861022949 5.7980286153822003e-15
      vertex 0.47999995946884155 0.59500002861022949 -0.029999999329447746
    endloop
  endfacet
  facet normal -1 0 -0
    outer loop
      vertex -0.88999998569488525 -0.59500002861022949 -0.029999999329447746
      vertex -0.88999998569488525 -0.59500002861022949 5.7980286153822003e-15
      vertex -0.88999998569488525 0.59500002861022949 5.7980286153822003e-15
    endloop
  endfacet
  facet normal -1 0 0
    outer loop
      vertex -0.88999998569488525 -0.59500002861022949 -0.029999999329447746
      vertex -0.88999998569488525 0.59500002861022949 5.7980286153822003e-15
      vertex -0.88999998569488525 0.59500002861022949 -0.029999999329447746
    endloop
  endfacet
  facet normal -0 -1 -0
    outer loop
      vertex 0.47999995946884155 -0.59500002861022949 -0.029999999329447746
      vertex 0.47999995946884155 -0.59500002861022949 5.7980286153822003e-15
      vertex -0.88999998569488525 -0.59500002861022949 5.7980286153822003e-15
    endloop
  endfacet
  facet normal 0 -1 0
    outer loop
      vertex 0.47999995946884155 -0.59500002861022949 -0.029999999329447746
      vertex -0.88999998569488525 -0.59500002861022949 5.7980286153822003e-15
      vertex -0.88999998569488525 -0.59500002861022949 -0.029999999329447746
    endloop
  endfacet
  facet normal -0 0 -1
    outer loop
      vertex 0.47999995946884155 0.59500002861022949 -0.029999999329447746
      vertex 0.47999995946884155 -0.59500002861022949 -0.029999999329447746
      vertex -0.88999998569488525 -0.59500002861022949 -0.029999999329447746
    endloop
  endfacet
  facet normal 0 -0 -1
    outer loop
      vertex 0.47999995946884155 0.59500002861022949 -0.029999999329447746
      vertex -0.88999998569488525 -0.59500002861022949 -0.029999999329447746
      vertex -0.88999998569488525 0.59500002861022949 -0.029999999329447746
    endloop
  endfacet
endsolid OBJECT
